<?xml version="1.0" encoding="UTF-8" standalone="no"?>
<!DOCTYPE svg PUBLIC "-//W3C//DTD SVG 1.1//EN" "http://www.w3.org/Graphics/SVG/1.1/DTD/svg11.dtd">
<svg width="100%" height="100%" viewBox="0 0 512 512" version="1.1" xmlns="http://www.w3.org/2000/svg" xmlns:xlink="http://www.w3.org/1999/xlink" xml:space="preserve" xmlns:serif="http://www.serif.com/" style="fill-rule:evenodd;clip-rule:evenodd;stroke-linecap:round;stroke-linejoin:round;stroke-miterlimit:1.5;">
    <g transform="matrix(1.00754,0,0,1.10438,-5.0113,-33.0509)">
        <path d="M264.543,241.068C267.627,235.696 273.786,231.863 277.74,227.118C289.075,213.516 298.396,197.001 300.792,179.027C305.174,146.163 292.717,131.553 274.958,106.691C268.42,97.538 263.095,86.481 255.085,78.472C237.208,60.595 198.293,45.905 173.608,52.637C148.059,59.605 107.261,76.018 95.207,101.633C90.208,112.255 86.817,149.762 82.194,154.385C70.855,165.724 52.791,151.139 45.805,167.439C42.235,175.769 48.379,180.012 53.975,184.591C57.601,187.558 59.173,192.023 62.719,194.925C74.681,204.712 86.613,213.956 96.9,225.529C99.869,228.869 107.954,236.123 106.439,241.427C105.158,245.91 98.96,249.267 95.707,252.158C85.357,261.358 75.004,270.036 64.309,278.787C58.099,283.867 36.19,310.644 34.5,318.532C28.964,344.365 46.389,383.347 61.129,403.984C77.997,427.599 105.133,446.869 132.273,456.448C142.187,459.947 153.812,458.368 164.069,461.217C218.003,476.199 289.245,472.464 345.307,469.166C377.392,467.279 398.518,469.379 428.374,453.666C438.566,448.301 446.675,443.307 453.811,433.793C457.957,428.265 459.614,421.284 463.35,415.51C477.026,394.375 483.498,371.726 487.594,347.149C489.63,334.937 492.858,320.412 488.787,308.198C483.12,291.198 469.854,278.428 464.145,261.299C460.875,251.489 460.978,240.06 461.76,229.901C462.604,218.922 469.727,205.848 454.208,201.284C435.92,195.905 414.735,195.72 395.783,195.72C387.734,195.72 378.24,195.158 371.649,200.808C354.023,215.915 351.404,246.517 327.819,254.94C311.912,260.621 280.836,241.068 264.543,241.068Z" style="fill:rgb(55,200,132);stroke:rgb(55,200,132);stroke-width:39.33px;"/>
    </g>
    <g id="Layer1">
        <g transform="matrix(1.00754,0,0,1.10438,-5.0113,-33.0509)">
            <path d="M72.712,142.625C72.502,143.485 67.921,141.148 67.091,140.871C64.591,140.038 59.793,139.946 57.155,140.474C46.801,142.545 37.007,150.426 31.718,158.359C27.106,165.277 30.239,175.927 32.91,182.604C39.279,198.527 67.322,226.041 79.809,232.285C93.536,239.148 117.341,222.961 128.298,216.387C132.034,214.146 137.909,212.739 141.017,209.63C143.415,207.232 149.665,201.681 153.338,201.681" style="fill:none;stroke:rgb(237,200,18);stroke-width:12.75px;"/>
        </g>
        <g transform="matrix(1.00754,0,0,1.10438,-5.0113,-33.0509)">
            <path d="M76.027,142.89C74.981,140.55 83.325,143.623 84.181,144.051C90.616,147.268 98.169,152.077 103.259,157.167C118.061,171.968 136.712,183.863 151.351,198.502" style="fill:none;stroke:rgb(237,200,18);stroke-width:12.75px;"/>
        </g>
        <g transform="matrix(1.00754,0,0,1.10438,-5.0113,-33.0509)">
            <path d="M88.353,183.348C88.196,180.223 87.23,178.498 88.553,179.822C89.053,180.321 88.353,183.348 88.353,183.348Z" style="fill:rgb(237,200,18);stroke:rgb(237,200,18);stroke-width:12.75px;"/>
        </g>
        <g transform="matrix(1.00754,0,0,1.10438,-5.0113,-33.0509)">
            <path d="M93.672,180.715C93.23,172.064 77.782,175.107 71.065,175.45C69.174,175.546 64.226,176.67 64.309,179.424C64.37,181.459 69.631,180.073 70.668,179.424C74.269,177.173 78.837,173.038 78.617,168.296C78.087,156.882 52.21,159.06 48.808,172.668C48.403,174.286 56.99,170.266 57.552,169.885C61.609,167.138 70.385,156.846 65.909,151.475C56.017,139.604 37.307,157.794 35.693,167.481C35.093,171.078 40.603,169.948 42.449,169.488C50.551,167.468 58.507,161.777 64.309,155.975C64.702,155.581 70.367,150.312 67.886,148.423C59.108,141.738 45.483,157.707 41.463,162.933C39.928,164.929 35.821,170.705 39.269,173.065C50.272,180.595 68.468,167.286 75.835,160.347C76.834,159.405 85.783,151.682 82.989,149.218C80.443,146.972 73.295,150.47 71.147,151.607C61.58,156.672 51.396,166.893 46.821,176.642C45.65,179.138 42.385,183.258 44.436,186.181C51.373,196.065 76.72,177.722 82.592,172.668C84.67,170.879 91.49,164.923 88.852,161.626C86.602,158.813 79.751,160.649 77.027,161.141C66.173,163.103 44.331,173.409 51.741,188.249C54.211,193.195 63.555,191.473 67.488,190.553C75.074,188.778 106.038,174.133 96.9,161.141C93.061,155.685 85.339,161.053 81.598,163.655C76.825,166.976 50.632,185.325 50.795,191.745C50.958,198.147 61.178,198.106 65.501,197.707C81.142,196.262 92.131,186.446 103.259,176.245C105.843,173.876 111.719,170.908 109.775,167.992C107.792,165.017 99.554,169.381 97.695,170.283C86.62,175.654 76.803,184.444 69.271,194.128C67.971,195.799 62.06,202.31 65.104,204.861C75.733,213.771 93.279,202.956 100.874,195.72C103.191,193.512 111.128,186.152 108.823,182.206C101.974,170.482 76.547,189.045 72.258,195.72C70.556,198.368 67.068,205.711 69.51,208.806C78.024,219.594 105.914,205.098 113.265,199.147C124.007,190.451 124.956,186.311 123.926,185.783C119.063,183.29 108.735,188.533 104.451,190.155C102.061,191.06 94.783,193.578 91.306,195.316C80.582,200.678 74.972,212.905 91.335,214.4C100.713,215.257 109.429,210.87 116.375,204.861C119.611,202.061 125.242,196.319 123.126,191.382C120.907,186.205 112.935,186.894 108.687,187.501C96.564,189.234 87.308,200.239 79.909,208.985C77.914,211.342 67.947,220.393 69.476,223.541C70.699,226.061 78.402,224.893 80.207,224.734C94.187,223.5 106.949,217.532 118.362,209.63C118.852,209.291 130.97,202.543 130.286,199.297C129.563,195.873 120.139,197.07 117.965,197.707C112.295,199.367 91.13,210.673 92.13,217.58C92.851,222.553 103.21,222.333 106.439,221.951C116.051,220.815 125.239,215.216 131.875,208.438C132.591,207.707 140.717,201.156 140.619,198.502C140.551,196.656 132.215,196.088 130.683,195.322C124.439,192.2 124.176,187.135 119.952,182.206C117.951,179.872 115.498,177.496 113.195,175.45C112.343,174.693 109.273,173.462 110.413,173.462C114.354,173.462 126.715,191.449 129.093,194.527C130.768,196.695 132.521,200.139 133.068,202.874C133.381,204.438 135.061,207.643 133.465,207.643C128.297,207.643 122.857,205.441 117.567,205.259C104.485,204.807 91.335,205.656 78.22,205.259C71.563,205.057 64.465,206.178 57.95,204.464C57.896,204.449 50.443,200.622 50.795,200.887C62.967,210.015 61.569,214.002 77.822,214.002C85.196,214.002 93.672,180.715 93.672,180.715Z" style="fill:rgb(237,200,18);stroke:rgb(237,200,18);stroke-width:12.75px;"/>
        </g>
    </g>
    <g id="Layer2">
        <g transform="matrix(1.00754,0,0,1.10438,-5.0113,-33.0509)">
            <path d="M68.337,107.227C66.837,106.766 67.377,112.73 67.488,113.845C68.149,120.451 70.796,127.746 73.45,133.717C80.86,150.389 95.087,162.307 112.4,167.501C150.39,178.898 157.812,135.797 166.056,111.063C166.147,110.792 158.68,108.51 158.107,108.28C153.439,106.413 147.611,105.414 142.607,105.101C120.782,103.737 96.066,95.888 73.848,100.331C64.447,102.211 66.485,112.692 64.309,121.396C63.648,124.04 62.305,131.527 58.347,130.538C47.799,127.901 52.345,110.374 54.77,103.908C55.37,102.308 56.335,96.63 58.347,95.959C62.187,94.68 59.513,111.196 59.142,113.05C58.936,114.078 57.686,120.334 58.347,119.012C60.927,113.851 58.963,104.186 59.937,98.344C59.942,98.31 59.933,94.767 59.937,94.767C62.434,94.767 67.257,102.485 68.681,103.908C69.153,104.38 68.337,107.227 68.337,107.227Z" style="fill:rgb(237,200,18);stroke:black;stroke-width:12.75px;"/>
        </g>
        <g transform="matrix(1.00754,0,0,1.10438,-5.0113,-33.0509)">
            <path d="M79.983,107.905C81.643,101.857 69.225,114.152 76.232,118.217C82.107,121.625 94.07,106.368 90.361,105.132C88.283,104.439 74.312,123.741 79.687,128.348C87.403,134.962 96.1,123.235 99.036,117.362C99.538,116.358 103.675,109.035 102.067,108.28C100.096,107.356 96.34,111.174 95.31,112.255C91.603,116.145 80.258,130.096 84.181,136.102C89.217,143.811 108.265,127.729 110.82,122.618C111.602,121.055 115.135,113.474 112.798,111.857C103.817,105.647 85.027,130.839 90.176,138.562C98.122,150.482 131.687,122.59 123.586,112.868C114.926,102.476 89.59,129.202 96.784,140.726C106.849,156.848 128.159,138.396 133.574,128.55C135.198,125.597 139.265,117.312 136.645,113.845C133.864,110.165 126.169,114.745 123.691,116.31C116.233,121.021 101.713,134.55 106.933,144.991C108.421,147.967 111.012,149.621 113.99,150.808C128.968,156.773 138.608,141.392 143.96,129.352C144.979,127.059 148.834,118.555 145.786,116.229C130.968,104.923 109.204,142.028 118.76,153.987C132.853,171.626 148.439,142.827 151.351,131.73C151.62,130.703 156.325,114.973 152.94,113.845C151.587,113.394 151.789,116.461 151.351,117.819C149.66,123.061 147.364,127.762 146.678,133.251C145.517,142.542 152.169,138.336 154.928,133.32C155.556,132.177 156.053,130.962 156.517,129.743C157.152,128.078 160.493,120.618 158.902,118.614C156.378,115.434 150.957,125.763 150.953,125.768C143.617,136.365 136.873,149.217 124.324,154.385C118.392,156.827 102.783,157.883 97.695,152.795C96.073,151.174 88.788,140.871 95.31,140.871C101.832,140.871 79.983,107.905 79.983,107.905Z" style="fill:rgb(237,200,18);stroke:black;stroke-width:12.75px;"/>
        </g>
        <g transform="matrix(1.00754,0,0,1.10438,-4.21041,-29.5394)">
            <path d="M162.824,107.119C159.742,106.846 169.819,110.197 171.223,110.665C177.277,112.683 183.745,114.382 189.903,116.229C202.237,119.93 214.932,120.6 227.661,122.191C230.517,122.548 239.82,121.469 241.572,124.973C243.225,128.28 240.777,132.768 240.777,136.102C240.777,139.436 162.824,107.119 162.824,107.119Z" style="fill:rgb(237,200,18);stroke:black;stroke-width:12.75px;"/>
        </g>
    </g>
    <g transform="matrix(1.00754,0,0,1.10438,-5.0113,-33.0509)">
        <g id="Layer3">
            <path d="M337.9,336.761C356.062,338.269 401.138,313.031 366.372,301.442C323.346,287.1 266.376,296.937 231.238,325.686C223.01,332.418 201.021,358.91 205.404,370.598C210.552,384.326 224.556,384.226 236.803,384.906C265.843,386.52 296.365,388.105 325.434,386.894C331.931,386.623 361.212,384.624 363.987,378.15C365.321,375.038 358.086,373.123 356.833,372.585C345.274,367.632 332.686,365.284 320.267,363.444C320.201,363.434 307.195,361.767 307.946,360.265C308.953,358.252 323.834,359.981 326.229,359.867C337.963,359.308 361.513,358.462 369.154,347.546C377.059,336.253 345.778,336.534 340.935,337.61C340.32,337.746 337.9,336.761 337.9,336.761Z" style="fill:rgb(237,200,18);stroke:rgb(237,200,18);stroke-width:12.75px;"/>
        </g>
    </g>
</svg>
