<?xml version="1.0" encoding="UTF-8" standalone="no"?>
<!DOCTYPE svg PUBLIC "-//W3C//DTD SVG 1.1//EN" "http://www.w3.org/Graphics/SVG/1.1/DTD/svg11.dtd">
<svg width="100%" height="100%" viewBox="0 0 1024 512" version="1.1" xmlns="http://www.w3.org/2000/svg" xmlns:xlink="http://www.w3.org/1999/xlink" xml:space="preserve" xmlns:serif="http://www.serif.com/" style="fill-rule:evenodd;clip-rule:evenodd;stroke-linecap:round;stroke-linejoin:round;stroke-miterlimit:1.5;">
    <g transform="matrix(0.896709,0,0,0.92713,-22.9693,30.4649)">
        <path d="M145.79,158.655C146.128,157.517 143.058,154.794 142.472,153.857C140.222,150.256 138.867,147.925 135.711,145.164C123.972,134.892 102.45,134.829 88.385,139.852C82.506,141.952 77.535,146.603 72.449,149.993C58.433,159.337 51.726,173.85 47.096,189.593C41.09,210.014 39.223,227.83 42.749,248.992C45.889,267.826 55.017,283.073 70.517,294.145C73.031,295.94 75.099,298.44 78.002,299.698C94.226,306.729 122.443,304.447 137.16,294.145C142.848,290.163 145.302,284.221 148.509,278.45C151.204,273.598 152.235,267.408 153.579,262.03C153.833,261.014 155.003,258.359 154.545,257.443C154.304,256.96 151.049,255.756 150.44,255.27C145.857,251.603 139.78,248.219 136.194,243.438C132.915,239.066 129.488,233.253 124.846,230.158C124.145,229.691 121.392,226.814 120.982,227.019C120.197,227.411 120.136,229.838 119.533,230.641C117.016,233.998 116.714,238.866 113.256,241.748C110.357,244.163 104.37,247.533 100.7,248.267C97.252,248.957 94.207,247.087 92.007,244.887C85.699,238.578 83.03,228.991 83.798,219.775C84.997,205.387 95.876,183.316 113.98,189.351C117.854,190.642 119.727,190.74 122.672,194.422C123.281,195.182 126.419,199.609 127.26,198.768C134.035,191.993 139.785,182.395 145.128,174.381C146.931,171.676 151.257,168.287 149.957,165.688C148.841,163.456 145.528,154.098 143.679,154.098C142.675,154.098 145.79,158.655 145.79,158.655Z" style="fill:rgb(237,201,19);stroke:black;stroke-width:13.93px;"/>
    </g>
    <g transform="matrix(0.896709,0,0,0.92713,-23.7085,31.2292)">
        <path d="M101.934,193.176C102.834,193.667 103.82,192.753 104.824,192.879C108.447,193.332 112.916,193.412 116.005,195.729C119.316,198.212 121.719,202.1 124.555,204.936C125.179,205.561 125.771,207.819 127.185,207.348C129.149,206.694 130.066,203.81 131.351,202.525C135.717,198.159 139.103,193.577 142.751,188.713C143.308,187.97 146.553,181.698 147.135,181.698C147.562,181.698 146.733,182.453 146.478,182.794C146.008,183.42 145.663,184.142 145.162,184.767C143.566,186.763 141.835,188.63 140.339,190.686C136.302,196.237 131.337,202.1 126.528,206.909C126.312,207.125 124.36,202.712 124.116,202.306C122.949,200.36 120.88,198.412 119.293,196.825C118.3,195.831 115.345,195.071 114.032,195.071C113.848,195.071 111.027,194.259 111.839,195.071C112.651,195.883 101.934,193.176 101.934,193.176Z" style="fill:rgb(235,235,235);stroke:black;stroke-width:13.93px;"/>
    </g>
    <g transform="matrix(0.83973,0,0,0.824758,-19.684,50.7794)">
        <path d="M186.465,298.318C185.773,298.134 185.639,296.432 185.391,295.752C184.453,293.171 184.19,290.299 183.411,287.652C182.575,284.808 182.816,281.74 182.331,278.833C180.7,269.044 181.072,259.057 181.072,249.133C181.072,239.921 181.278,230.587 182.151,221.414C182.802,214.582 183.326,207.622 184.671,200.894C185.817,195.165 186.782,189.456 188.271,183.795C192.339,168.336 197.364,152.101 209.691,141.316C216.787,135.106 225.104,130.935 234.71,132.856C238.073,133.528 241.432,134.297 244.43,136.096C251.579,140.385 254.883,148.528 260.63,154.275L260.9,154.545C260.415,155.03 261.403,155.822 261.71,156.435C262.909,158.834 264.486,160.946 265.49,163.455C269.214,172.767 272.984,182.127 276.829,191.355C283.032,206.241 286.322,221.862 287.089,237.973C287.583,248.346 288.931,258.458 288.349,268.933C287.855,277.821 289.904,288.387 287.089,296.832C286.711,297.967 283.848,297.432 283.129,297.372C279.502,297.07 273.86,297.297 270.169,297.912C267.063,298.43 264.102,299.366 260.99,299.712C260.774,299.736 257.963,300.172 257.93,300.072C257.223,297.952 258.273,295.664 258.65,293.592C259.207,290.526 258.825,286.832 259.01,283.692C259.458,276.078 257.897,268.752 257.21,261.193C256.864,257.394 256.52,253.733 255.41,250.033C255.025,248.751 255.171,246.374 254.15,245.353C252.566,243.769 247.724,245.434 246.05,245.713C240.906,246.571 235.236,245.459 230.03,245.893C227.814,246.078 222.859,245.782 221.031,247.153C219.174,248.546 219.711,254.769 219.411,256.873C217.938,267.183 217.288,277.796 218.511,288.192C218.905,291.546 221.652,296.867 220.851,300.072C220.105,303.053 216.534,302.081 214.551,302.412C207.622,303.567 200.998,305.019 194.031,305.652C193.076,305.739 186.291,304.165 186.291,303.672C186.291,303.179 186.465,298.318 186.465,298.318Z" style="fill:rgb(237,201,19);stroke:black;stroke-width:15.27px;"/>
    </g>
    <g transform="matrix(0.83973,0,0,0.824758,-19.684,50.7794)">
        <path d="M226.871,208.365C226.207,207.611 227.876,203.868 228.05,203.054C228.98,198.716 230.143,194.421 231.65,190.275C232.121,188.98 232.942,186.632 234.53,186.315C235.727,186.075 236.618,190.535 236.87,191.355C238.046,195.177 237.932,199.327 238.49,203.234C238.628,204.202 239.141,206.327 238.49,207.194C236.24,210.194 231.5,208.784 228.95,211.334C228.438,211.847 226.871,208.365 226.871,208.365Z" style="fill:rgb(235,235,235);stroke:black;stroke-width:15.27px;"/>
    </g>
    <g transform="matrix(0.83973,0,0,0.824758,-19.684,50.7794)">
        <path d="M281.017,201.215C280.404,209.05 287.622,217.947 288.955,225.945C290.771,236.837 293.799,247.526 295.017,258.488C295.835,265.844 295.717,273.534 296.931,280.821C297.78,285.914 296.612,291.841 296.612,296.773C296.612,298.206 297.209,301.579 295.974,302.197C291.302,304.533 284.323,303.697 279.065,304.749C276.935,305.175 270.284,307.453 268.537,305.706C267.987,305.156 271.805,306.296 272.046,306.344C273.893,306.714 276.22,306.344 278.108,306.344C279.159,306.344 294.673,303.804 295.974,303.154C297.317,302.483 296.228,300.022 295.974,299.006C295.019,295.183 295.509,288.824 293.741,285.287C291.973,281.75 281.017,201.215 281.017,201.215Z" style="fill:rgb(235,235,235);stroke:black;stroke-width:15.27px;"/>
    </g>
    <g transform="matrix(0.83973,0,0,0.824758,-19.684,50.7794)">
        <path d="M250.701,253.936C250.698,253.978 246.214,254.659 244.927,254.659C242.42,254.659 227.837,255.52 227.061,257.849C224.459,265.655 227.731,285.83 228.975,294.539C229.344,297.119 230.152,302.495 229.294,305.068C228.653,306.993 225.296,306.826 223.87,307.301C221.086,308.229 203.045,311.361 201.218,309.535C200.617,308.933 202.925,309.441 203.771,309.535C205.476,309.724 207.212,309.4 208.875,309.215C214.945,308.541 224.542,309.721 226.423,302.197C227.406,298.264 225.571,293.896 225.147,290.073C224.025,279.982 220.293,255.574 235.356,253.064C239.526,252.369 244.289,254.021 248.437,254.021C248.89,254.021 250.701,253.936 250.701,253.936Z" style="fill:rgb(235,235,235);stroke:black;stroke-width:15.27px;"/>
    </g>
    <g transform="matrix(0.83973,0,0,0.824758,736.608,45.2671)">
        <path d="M186.465,298.318C185.773,298.134 185.639,296.432 185.391,295.752C184.453,293.171 184.19,290.299 183.411,287.652C182.575,284.808 182.816,281.74 182.331,278.833C180.7,269.044 181.072,259.057 181.072,249.133C181.072,239.921 181.278,230.587 182.151,221.414C182.802,214.582 183.326,207.622 184.671,200.894C185.817,195.165 186.782,189.456 188.271,183.795C192.339,168.336 197.364,152.101 209.691,141.316C216.787,135.106 225.104,130.935 234.71,132.856C238.073,133.528 241.432,134.297 244.43,136.096C251.579,140.385 254.883,148.528 260.63,154.275L260.9,154.545C260.415,155.03 261.403,155.822 261.71,156.435C262.909,158.834 264.486,160.946 265.49,163.455C269.214,172.767 272.984,182.127 276.829,191.355C283.032,206.241 286.322,221.862 287.089,237.973C287.583,248.346 288.931,258.458 288.349,268.933C287.855,277.821 289.904,288.387 287.089,296.832C286.711,297.967 283.848,297.432 283.129,297.372C279.502,297.07 273.86,297.297 270.169,297.912C267.063,298.43 264.102,299.366 260.99,299.712C260.774,299.736 257.963,300.172 257.93,300.072C257.223,297.952 258.273,295.664 258.65,293.592C259.207,290.526 258.825,286.832 259.01,283.692C259.458,276.078 257.897,268.752 257.21,261.193C256.864,257.394 256.52,253.733 255.41,250.033C255.025,248.751 255.171,246.374 254.15,245.353C252.566,243.769 247.724,245.434 246.05,245.713C240.906,246.571 235.236,245.459 230.03,245.893C227.814,246.078 222.859,245.782 221.031,247.153C219.174,248.546 219.711,254.769 219.411,256.873C217.938,267.183 217.288,277.796 218.511,288.192C218.905,291.546 221.652,296.867 220.851,300.072C220.105,303.053 216.534,302.081 214.551,302.412C207.622,303.567 200.998,305.019 194.031,305.652C193.076,305.739 186.291,304.165 186.291,303.672C186.291,303.179 186.465,298.318 186.465,298.318Z" style="fill:rgb(235,235,235);stroke:black;stroke-width:15.27px;"/>
    </g>
    <g transform="matrix(0.83973,0,0,0.824758,736.608,45.2671)">
        <path d="M226.871,208.365C226.207,207.611 227.876,203.868 228.05,203.054C228.98,198.716 230.143,194.421 231.65,190.275C232.121,188.98 232.942,186.632 234.53,186.315C235.727,186.075 236.618,190.535 236.87,191.355C238.046,195.177 237.932,199.327 238.49,203.234C238.628,204.202 239.141,206.327 238.49,207.194C236.24,210.194 231.5,208.784 228.95,211.334C228.438,211.847 226.871,208.365 226.871,208.365Z" style="fill:rgb(235,235,235);stroke:black;stroke-width:15.27px;"/>
    </g>
    <g transform="matrix(0.83973,0,0,0.824758,736.608,45.2671)">
        <path d="M281.017,201.215C280.404,209.05 287.622,217.947 288.955,225.945C290.771,236.837 293.799,247.526 295.017,258.488C295.835,265.844 295.717,273.534 296.931,280.821C297.78,285.914 296.612,291.841 296.612,296.773C296.612,298.206 297.209,301.579 295.974,302.197C291.302,304.533 284.323,303.697 279.065,304.749C276.935,305.175 270.284,307.453 268.537,305.706C267.987,305.156 271.805,306.296 272.046,306.344C273.893,306.714 276.22,306.344 278.108,306.344C279.159,306.344 294.673,303.804 295.974,303.154C297.317,302.483 296.228,300.022 295.974,299.006C295.019,295.183 295.509,288.824 293.741,285.287C291.973,281.75 281.017,201.215 281.017,201.215Z" style="fill:rgb(235,235,235);stroke:black;stroke-width:15.27px;"/>
    </g>
    <g transform="matrix(0.83973,0,0,0.824758,736.608,45.2671)">
        <path d="M250.701,253.936C250.698,253.978 246.214,254.659 244.927,254.659C242.42,254.659 227.837,255.52 227.061,257.849C224.459,265.655 227.731,285.83 228.975,294.539C229.344,297.119 230.152,302.495 229.294,305.068C228.653,306.993 225.296,306.826 223.87,307.301C221.086,308.229 203.045,311.361 201.218,309.535C200.617,308.933 202.925,309.441 203.771,309.535C205.476,309.724 207.212,309.4 208.875,309.215C214.945,308.541 224.542,309.721 226.423,302.197C227.406,298.264 225.571,293.896 225.147,290.073C224.025,279.982 220.293,255.574 235.356,253.064C239.526,252.369 244.289,254.021 248.437,254.021C248.89,254.021 250.701,253.936 250.701,253.936Z" style="fill:rgb(235,235,235);stroke:black;stroke-width:15.27px;"/>
    </g>
    <g transform="matrix(0.83973,0,0,0.824758,-31.4511,47.3802)">
        <path d="M333.917,300.195C333.923,300.247 334.462,301.815 334.656,301.621C335.102,301.175 334.294,298.757 334.184,298.315C333.338,294.932 332.729,291.636 332.295,288.162C331.212,279.5 329.568,270.879 328.989,262.188C327.22,235.652 323.695,207.886 325.919,181.196C326.417,175.226 326.36,169.171 327.1,163.25C327.934,156.572 328.545,144.568 332.767,140.346C338.197,134.915 351.156,139.2 358.033,140.346C363.438,141.247 369.784,140.346 375.27,140.346C387.903,140.346 404.498,139.524 415.648,146.957C418.383,148.781 418.931,152.055 420.767,154.335C425.765,160.544 425.368,170.813 424.621,176.001C423.932,180.782 422.952,192.877 419.207,195.873C411.267,202.225 396.81,206.883 398.174,217.796C400.711,238.092 414.081,255.984 422.968,273.758C425.202,278.226 429.429,285.129 427.218,290.287C426.675,291.553 425.33,291.348 424.621,292.412C424.078,293.227 424.529,293.834 423.44,294.301C419.715,295.898 414.811,297.364 410.689,298.315C406.647,299.248 403.029,300.262 398.883,300.677C380.824,302.483 380.806,279.375 377.867,267.619C377.004,264.167 377.364,260.051 376.923,256.521C376.428,252.565 374.864,248.59 374.089,244.714C373.364,241.091 370.988,236.652 366.533,237.394C359.894,238.501 361.017,248.399 361.338,253.215C362.147,265.344 365.34,277.476 367.714,289.343C368.323,292.389 370.739,300.736 368.658,303.51C367.299,305.322 364.452,305.7 362.519,306.344C356.302,308.416 347.689,309.909 341.504,306.816C339.435,305.782 333.947,305.493 333.947,302.566C333.947,302.092 333.917,300.195 333.917,300.195Z" style="fill:rgb(237,201,19);stroke:black;stroke-width:15.27px;"/>
    </g>
    <g transform="matrix(0.83973,0,0,0.824758,-31.4511,47.3802)">
        <path d="M365.491,171.41C365.489,171.411 365.455,172.036 365.589,173.64C365.716,175.166 365.328,178.574 366.533,179.779C367.257,180.503 366.533,177.733 366.533,176.709C366.533,174.513 367.283,172.181 368.894,170.57C371.764,167.7 383.749,171.131 386.088,174.249C389.619,178.957 376.259,178.93 373.617,180.251C373.035,180.542 373.617,179.504 373.617,180.251C373.617,180.999 365.491,171.41 365.491,171.41Z" style="stroke:black;stroke-width:15.27px;"/>
    </g>
    <g transform="matrix(0.83973,0,0,0.824758,-31.4511,47.3802)">
        <path d="M424.347,161.759C425.514,165.365 427.38,168.519 428.893,172.05C432.629,180.768 431.875,192.238 426.416,199.881C422.511,205.348 417.031,208.033 411.408,211.246C409.699,212.222 407.311,212.523 405.871,213.723C405.219,214.267 404.736,214.052 403.977,214.16C403.718,214.197 403.069,214.889 403.103,214.889C405.549,214.889 408.506,211.88 410.534,210.663C413.414,208.935 416.332,207.405 418.839,205.126C423.182,201.178 426.505,193.774 428.019,188.224C428.98,184.701 429.664,180.378 429.33,176.713C429.26,175.942 428.879,173.653 428.019,173.653C427.159,173.653 424.347,161.759 424.347,161.759Z" style="stroke:black;stroke-width:15.27px;"/>
    </g>
    <g transform="matrix(0.83973,0,0,0.824758,-31.4511,47.3802)">
        <path d="M369.008,244.576C367.773,243.667 366.336,245.989 365.801,247.236C364.324,250.682 363.968,255.282 364.344,259.039C365.376,269.363 366.518,279.615 367.55,289.929C368.091,295.347 371.412,301.797 370.318,307.268C369.681,310.455 365.779,310.604 363.324,310.911C358.061,311.569 352.822,312.76 347.442,312.222C345.862,312.065 344.009,312.311 342.488,311.931C342.232,311.867 341.201,311.178 340.885,311.494C340.596,311.782 343.744,312.068 343.799,312.077C345.936,312.433 348.043,312.368 350.21,312.368C352.719,312.368 354.82,311.938 357.204,311.64C359.649,311.334 362.006,310.392 364.49,310.037C365.354,309.913 366.665,308.58 367.258,308.58C367.851,308.58 369.008,244.576 369.008,244.576Z" style="stroke:black;stroke-width:15.27px;"/>
    </g>
    <g transform="matrix(0.83973,0,0,0.824758,523.677,46.7004)">
        <path d="M186.465,298.318C185.773,298.134 185.639,296.432 185.391,295.752C184.453,293.171 184.19,290.299 183.411,287.652C182.575,284.808 182.816,281.74 182.331,278.833C180.7,269.044 181.072,259.057 181.072,249.133C181.072,239.921 181.278,230.587 182.151,221.414C182.802,214.582 183.326,207.622 184.671,200.894C185.817,195.165 186.782,189.456 188.271,183.795C192.339,168.336 197.364,152.101 209.691,141.316C216.787,135.106 225.104,130.935 234.71,132.856C238.073,133.528 241.432,134.297 244.43,136.096C251.579,140.385 254.883,148.528 260.63,154.275L260.9,154.545C260.415,155.03 261.403,155.822 261.71,156.435C262.909,158.834 264.486,160.946 265.49,163.455C269.214,172.767 272.984,182.127 276.829,191.355C283.032,206.241 286.322,221.862 287.089,237.973C287.583,248.346 288.931,258.458 288.349,268.933C287.855,277.821 289.904,288.387 287.089,296.832C286.711,297.967 283.848,297.432 283.129,297.372C279.502,297.07 273.86,297.297 270.169,297.912C267.063,298.43 264.102,299.366 260.99,299.712C260.774,299.736 257.963,300.172 257.93,300.072C257.223,297.952 258.273,295.664 258.65,293.592C259.207,290.526 258.825,286.832 259.01,283.692C259.458,276.078 257.897,268.752 257.21,261.193C256.864,257.394 256.52,253.733 255.41,250.033C255.025,248.751 255.171,246.374 254.15,245.353C252.566,243.769 247.724,245.434 246.05,245.713C240.906,246.571 235.236,245.459 230.03,245.893C227.814,246.078 222.859,245.782 221.031,247.153C219.174,248.546 219.711,254.769 219.411,256.873C217.938,267.183 217.288,277.796 218.511,288.192C218.905,291.546 221.652,296.867 220.851,300.072C220.105,303.053 216.534,302.081 214.551,302.412C207.622,303.567 200.998,305.019 194.031,305.652C193.076,305.739 186.291,304.165 186.291,303.672C186.291,303.179 186.465,298.318 186.465,298.318Z" style="fill:rgb(235,235,235);stroke:black;stroke-width:15.27px;"/>
    </g>
    <g transform="matrix(0.83973,0,0,0.824758,523.677,46.7004)">
        <path d="M226.871,208.365C226.207,207.611 227.876,203.868 228.05,203.054C228.98,198.716 230.143,194.421 231.65,190.275C232.121,188.98 232.942,186.632 234.53,186.315C235.727,186.075 236.618,190.535 236.87,191.355C238.046,195.177 237.932,199.327 238.49,203.234C238.628,204.202 239.141,206.327 238.49,207.194C236.24,210.194 231.5,208.784 228.95,211.334C228.438,211.847 226.871,208.365 226.871,208.365Z" style="fill:rgb(235,235,235);stroke:black;stroke-width:15.27px;"/>
    </g>
    <g transform="matrix(0.83973,0,0,0.824758,523.677,46.7004)">
        <path d="M281.017,201.215C280.404,209.05 287.622,217.947 288.955,225.945C290.771,236.837 293.799,247.526 295.017,258.488C295.835,265.844 295.717,273.534 296.931,280.821C297.78,285.914 296.612,291.841 296.612,296.773C296.612,298.206 297.209,301.579 295.974,302.197C291.302,304.533 284.323,303.697 279.065,304.749C276.935,305.175 270.284,307.453 268.537,305.706C267.987,305.156 271.805,306.296 272.046,306.344C273.893,306.714 276.22,306.344 278.108,306.344C279.159,306.344 294.673,303.804 295.974,303.154C297.317,302.483 296.228,300.022 295.974,299.006C295.019,295.183 295.509,288.824 293.741,285.287C291.973,281.75 281.017,201.215 281.017,201.215Z" style="fill:rgb(235,235,235);stroke:black;stroke-width:15.27px;"/>
    </g>
    <g transform="matrix(0.83973,0,0,0.824758,523.677,46.7004)">
        <path d="M250.701,253.936C250.698,253.978 246.214,254.659 244.927,254.659C242.42,254.659 227.837,255.52 227.061,257.849C224.459,265.655 227.731,285.83 228.975,294.539C229.344,297.119 230.152,302.495 229.294,305.068C228.653,306.993 225.296,306.826 223.87,307.301C221.086,308.229 203.045,311.361 201.218,309.535C200.617,308.933 202.925,309.441 203.771,309.535C205.476,309.724 207.212,309.4 208.875,309.215C214.945,308.541 224.542,309.721 226.423,302.197C227.406,298.264 225.571,293.896 225.147,290.073C224.025,279.982 220.293,255.574 235.356,253.064C239.526,252.369 244.289,254.021 248.437,254.021C248.89,254.021 250.701,253.936 250.701,253.936Z" style="fill:rgb(235,235,235);stroke:black;stroke-width:15.27px;"/>
    </g>
    <g transform="matrix(0.83973,0,0,0.824758,511.91,43.3012)">
        <path d="M333.917,300.195C333.923,300.247 334.462,301.815 334.656,301.621C335.102,301.175 334.294,298.757 334.184,298.315C333.338,294.932 332.729,291.636 332.295,288.162C331.212,279.5 329.568,270.879 328.989,262.188C327.22,235.652 323.695,207.886 325.919,181.196C326.417,175.226 326.36,169.171 327.1,163.25C327.934,156.572 328.545,144.568 332.767,140.346C338.197,134.915 351.156,139.2 358.033,140.346C363.438,141.247 369.784,140.346 375.27,140.346C387.903,140.346 404.498,139.524 415.648,146.957C418.383,148.781 418.931,152.055 420.767,154.335C425.765,160.544 425.368,170.813 424.621,176.001C423.932,180.782 422.952,192.877 419.207,195.873C411.267,202.225 396.81,206.883 398.174,217.796C400.711,238.092 414.081,255.984 422.968,273.758C425.202,278.226 429.429,285.129 427.218,290.287C426.675,291.553 425.33,291.348 424.621,292.412C424.078,293.227 424.529,293.834 423.44,294.301C419.715,295.898 414.811,297.364 410.689,298.315C406.647,299.248 403.029,300.262 398.883,300.677C380.824,302.483 380.806,279.375 377.867,267.619C377.004,264.167 377.364,260.051 376.923,256.521C376.428,252.565 374.864,248.59 374.089,244.714C373.364,241.091 370.988,236.652 366.533,237.394C359.894,238.501 361.017,248.399 361.338,253.215C362.147,265.344 365.34,277.476 367.714,289.343C368.323,292.389 370.739,300.736 368.658,303.51C367.299,305.322 364.452,305.7 362.519,306.344C356.302,308.416 347.689,309.909 341.504,306.816C339.435,305.782 333.947,305.493 333.947,302.566C333.947,302.092 333.917,300.195 333.917,300.195Z" style="fill:rgb(235,235,235);stroke:black;stroke-width:15.27px;"/>
    </g>
    <g transform="matrix(0.83973,0,0,0.824758,511.91,43.3012)">
        <path d="M365.491,171.41C365.489,171.411 365.455,172.036 365.589,173.64C365.716,175.166 365.328,178.574 366.533,179.779C367.257,180.503 366.533,177.733 366.533,176.709C366.533,174.513 367.283,172.181 368.894,170.57C371.764,167.7 383.749,171.131 386.088,174.249C389.619,178.957 376.259,178.93 373.617,180.251C373.035,180.542 373.617,179.504 373.617,180.251C373.617,180.999 365.491,171.41 365.491,171.41Z" style="stroke:black;stroke-width:15.27px;"/>
    </g>
    <g transform="matrix(0.83973,0,0,0.824758,511.91,43.3012)">
        <path d="M424.347,161.759C425.514,165.365 427.38,168.519 428.893,172.05C432.629,180.768 431.875,192.238 426.416,199.881C422.511,205.348 417.031,208.033 411.408,211.246C409.699,212.222 407.311,212.523 405.871,213.723C405.219,214.267 404.736,214.052 403.977,214.16C403.718,214.197 403.069,214.889 403.103,214.889C405.549,214.889 408.506,211.88 410.534,210.663C413.414,208.935 416.332,207.405 418.839,205.126C423.182,201.178 426.505,193.774 428.019,188.224C428.98,184.701 429.664,180.378 429.33,176.713C429.26,175.942 428.879,173.653 428.019,173.653C427.159,173.653 424.347,161.759 424.347,161.759Z" style="stroke:black;stroke-width:15.27px;"/>
    </g>
    <g transform="matrix(0.83973,0,0,0.824758,511.91,43.3012)">
        <path d="M369.008,244.576C367.773,243.667 366.336,245.989 365.801,247.236C364.324,250.682 363.968,255.282 364.344,259.039C365.376,269.363 366.518,279.615 367.55,289.929C368.091,295.347 371.412,301.797 370.318,307.268C369.681,310.455 365.779,310.604 363.324,310.911C358.061,311.569 352.822,312.76 347.442,312.222C345.862,312.065 344.009,312.311 342.488,311.931C342.232,311.867 341.201,311.178 340.885,311.494C340.596,311.782 343.744,312.068 343.799,312.077C345.936,312.433 348.043,312.368 350.21,312.368C352.719,312.368 354.82,311.938 357.204,311.64C359.649,311.334 362.006,310.392 364.49,310.037C365.354,309.913 366.665,308.58 367.258,308.58C367.851,308.58 369.008,244.576 369.008,244.576Z" style="fill:rgb(214,187,16);stroke:black;stroke-width:15.27px;"/>
    </g>
    <g transform="matrix(0.83973,0,0,0.824758,-39.1415,42.5864)">
        <path d="M472.895,301.416C472.875,303.478 472.557,297.856 472.018,296.456C470.547,292.631 469.145,288.383 468.346,284.392C465.921,272.267 462.613,260.545 461.003,248.202C457.69,222.8 458.545,196.166 462.752,170.926C463.852,164.328 464.635,157.019 467.647,150.995C468.434,149.421 468.701,147.32 470.27,146.274C471.393,145.526 473.006,145.654 474.291,145.226C482.74,142.409 491.228,140.33 500.341,140.33L504.537,140.33C504.537,139.915 508.065,139.693 508.558,139.631C513.427,139.022 518.301,139.055 523.069,140.155C525.09,140.622 527.137,140.517 529.188,141.03C541.193,144.031 553.539,153.588 557.511,165.506C561.797,178.363 555.02,191.924 548.245,202.571C544.48,208.486 534.762,213.224 535.657,221.278C536.542,229.239 546.457,232.078 551.217,236.838C558.529,244.15 562.156,255.609 562.931,265.685C563.216,269.396 564.209,273.684 563.281,277.399C562.197,281.735 561.275,286.284 558.56,289.987C549.907,301.786 534.363,301.908 521.146,302.925C514.984,303.399 509.186,304.592 503.138,305.547C498.514,306.277 493.728,305.24 489.152,305.722C487.24,305.923 485.151,306.54 483.207,306.421C480.956,306.284 478.871,305.547 476.564,305.547C475.696,305.547 473.21,305.897 473.941,305.897C474.672,305.897 472.895,301.416 472.895,301.416Z" style="fill:rgb(237,201,19);stroke:black;stroke-width:15.02px;"/>
    </g>
    <g transform="matrix(0.83973,0,0,0.824758,-39.065,43.3012)">
        <path d="M560.338,173.399C559.431,173.402 561.529,174.127 561.664,174.217C562.721,174.922 559.297,172.879 560.338,173.399C563.029,174.744 562.78,182.159 561.868,184.44C557.915,194.321 556.462,202.698 549.806,211.018C548.505,212.643 546.373,213.837 544.899,215.311C544.077,216.133 543.428,216.905 542.446,217.56C542.217,217.712 541.877,218.468 541.832,218.378C541.52,217.754 543.155,216.895 543.468,216.538C545.079,214.697 546.679,212.752 548.17,210.813C552.126,205.671 554.933,201.015 557.575,195.071C559.032,191.793 561.162,187.968 561.868,184.44C562.11,183.228 562.649,182.169 562.89,180.964C562.992,180.456 563.504,179.231 563.504,179.328C563.504,179.425 560.338,173.399 560.338,173.399Z" style="fill:rgb(237,201,19);stroke:black;stroke-width:15.02px;"/>
    </g>
    <g transform="matrix(0.83973,0,0,0.824758,-39.065,43.3012)">
        <path d="M562.265,247.594C562.343,249.048 564.39,252.12 565.059,254.797C567.956,266.383 570.879,280.3 564.73,290.548C554.323,307.893 529.283,309.357 510.756,309.357C505.471,309.357 499.411,311.018 494.401,309.766C489.587,308.562 484.146,311.186 479.271,309.561C478.223,309.212 475.099,310.296 474.365,309.561C473.459,308.655 481.648,308.743 482.543,308.743C487.826,308.743 493.526,309.777 498.694,308.743C508.346,306.813 517.806,302.828 527.725,301.588C534.04,300.799 540.635,300.641 546.535,298.112C556.083,294.02 565.115,285.148 567.184,274.805C567.872,271.366 568.002,267.699 568.002,264.174C568.002,262.39 567.388,258.858 567.388,258.858C567.388,258.858 567.268,259.543 567.184,259.881C567.099,260.218 562.265,247.594 562.265,247.594Z" style="fill:rgb(237,201,19);stroke:black;stroke-width:15.02px;"/>
    </g>
    <g transform="matrix(0.83973,0,0,0.824758,-49.6121,47.1392)">
        <path d="M647.968,141.15C647.901,139.521 646.035,139.823 644.652,139.571C641.389,138.978 638.115,140.226 634.997,141.116C623.865,144.297 614.552,151.082 608.929,161.391C598.23,181.007 594.143,207.017 597.218,228.546C598.911,240.395 601.375,252.488 605.277,263.87C608.276,272.615 613.561,282.288 620.901,288.642C624.41,291.679 628.516,293.094 632.873,294.435C636.306,295.491 639.709,295.864 643.3,295.98C654.969,296.356 666.032,295.626 677.289,293.013C681.457,292.046 683.734,290.744 686.1,288.988C691.633,284.88 695.971,279.313 699.413,273.676C709.849,256.587 707.309,236.769 709.273,215.251C710.746,199.123 703.565,180.792 698.738,169.521C696.556,164.427 693.616,162.217 691.01,159.285C684.352,151.795 669.361,144.625 659.327,141.889C654.203,140.491 649.821,142.275 644.845,142.275C644.181,142.275 647.968,141.15 647.968,141.15Z" style="fill:rgb(237,201,19);stroke:black;stroke-width:15.02px;"/>
    </g>
    <g transform="matrix(0.83973,0,0,0.824758,-48.0634,45.3407)">
        <path d="M645.613,203.865C641.225,204.04 639.126,209.14 638.28,212.948C636.492,220.995 637.701,230.548 645.424,234.961C646.979,235.849 649.075,236.831 651.024,236.506C662.946,234.519 661.408,216.829 659.327,208.507C658.877,206.706 657.812,204.095 656.431,202.714C654.471,200.755 647.313,198.055 646.197,202.521C646.126,202.805 645.613,203.865 645.613,203.865Z" style="fill:rgb(237,201,19);stroke:black;stroke-width:15.02px;"/>
    </g>
    <g transform="matrix(0.83973,0,0,0.824758,-48.0634,45.3407)">
        <path d="M651.239,205.02C644.893,208.195 644.981,214.608 642.335,219.9C641.612,221.345 641.949,223.879 641.949,225.499C641.949,225.83 642.492,228.625 642.528,228.589C643.203,227.914 641.979,222.392 642.142,221.251C642.804,216.614 644.592,207.379 649.286,205.031C649.636,204.857 651.239,205.02 651.239,205.02Z" style="fill:rgb(237,201,19);stroke:black;stroke-width:15.02px;"/>
    </g>
    <g transform="matrix(0.83973,0,0,0.824758,-48.0634,45.3407)">
        <path d="M705.641,184.901C704.871,185.128 706.123,186.883 706.25,187.073C707.569,189.051 708.862,190.752 709.919,192.866C712.597,198.223 714.578,203.876 715.325,209.859C716.352,218.073 717.712,227.841 716.677,236.12C715.237,247.644 712.559,258.832 710.305,270.105C709.636,273.449 707.508,279.756 705.477,282.463C703.794,284.708 701.184,286.14 699.491,288.256C690.016,300.1 675.673,303.317 661.258,303.317C657.31,303.317 653.105,303.695 649.286,302.931C645.913,302.257 642.219,303.178 639.052,302.545C635.872,301.909 629.527,299.443 626.887,297.331C626.211,296.79 624.09,295.594 624.956,295.594C627.335,295.594 629.738,298.737 632.101,299.262C636.677,300.279 641.43,300.243 646.004,301.386C649.704,302.311 654.52,299.808 657.976,299.262C669.43,297.454 683.062,299.276 692.347,291.152C707.468,277.921 711.85,255.139 711.85,236.12C711.85,230.173 711.307,223.857 712.043,217.969C712.18,216.873 713.089,208.233 712.043,209.279C710.996,210.326 705.641,184.901 705.641,184.901Z" style="fill:rgb(237,201,19);stroke:black;stroke-width:15.02px;"/>
    </g>
    <g transform="matrix(0.83973,0,0,0.824758,-55.6773,39.902)">
        <path d="M748.575,299.044C749.582,292.683 747.045,285.227 746.145,278.923C744.428,266.908 744.058,254.436 743.64,242.316C743.207,229.768 743.549,217.243 744.411,204.745C744.653,201.229 744.471,197.643 744.989,194.148C745.389,191.447 745.983,188.773 746.337,186.056C748.084,172.664 754.576,147.21 773.311,156.577C775.022,157.433 776.025,159.342 777.55,160.431C779.043,161.498 781.41,161.786 782.752,163.128C791.942,172.318 794.669,188.006 797.973,200.121C798.431,201.801 798.979,203.418 799.322,205.13C799.597,206.506 800.029,207.77 800.285,209.176C800.889,212.501 806.235,212.723 806.604,209.641C807.151,205.08 804.241,217.254 808.955,216.883C811.152,216.71 808.331,218.755 808.955,216.883C810.217,213.096 810.689,208.939 810.689,204.938C810.689,193.216 809.542,181.138 808.377,169.486C807.94,165.112 806.102,158.467 809.726,154.843C811.538,153.031 816.472,153.769 818.781,153.109C823.676,151.711 828.682,148.607 833.617,151.568C835.184,152.508 838.515,153.708 839.782,155.229C846.394,163.163 843.036,176.787 842.48,186.249C841.667,200.066 841.809,214.054 842.672,227.865C843.24,236.957 842.631,245.992 843.636,255.032C844.453,262.389 846.333,270.955 846.333,277.767C846.333,279.26 846.147,284.14 845.311,284.976C843.054,287.233 844.176,290.827 840.938,293.373C836.506,296.858 832.553,295.903 830.559,297.104C826.063,299.811 824.85,296.147 822.717,294.725C817.496,291.244 817.068,282.042 813.964,276.611C811.85,272.911 813.302,268.966 810.628,265.758C806.81,261.176 801.338,249.437 793.454,251.014C789.484,251.808 789.907,262.897 789.53,265.916C788.56,273.675 786.722,276.309 787.569,283.932C787.854,286.505 789.954,295.978 788.48,298.433C786.102,302.397 777.557,299.794 773.311,300.502C771.813,300.751 769.926,300.217 768.494,300.694C766.024,301.518 765.268,303.209 762.329,302.621C759.674,302.09 749.722,305.553 749.722,301.953C749.722,300.896 748.575,299.044 748.575,299.044Z" style="fill:rgb(237,201,19);stroke:black;stroke-width:15.02px;"/>
    </g>
    <g transform="matrix(0.83973,0,0,0.824758,-55.6773,39.902)">
        <path d="M842.934,156.025C841.543,155.804 846.18,157.518 846.909,157.882C849.336,159.096 848.826,160.797 848.826,163.286C848.826,172.942 847.441,182.592 848.129,192.223C848.972,204.022 848.02,216.194 847.431,227.958C846.768,241.228 848.153,254.895 849.349,268.052C849.717,272.097 849.505,276.213 849.872,280.254C850.237,284.271 852.208,290.619 849.523,294.199C846.251,298.562 836.814,300.305 831.22,298.906C829.703,298.527 828.138,297.665 826.862,296.814C826.6,296.64 824.596,295.368 824.596,295.42C824.596,296.81 828.855,298.919 829.825,299.08C832.042,299.45 834.067,300.467 836.449,300.126C839.779,299.651 843.86,296.216 846.037,293.676C851.242,287.604 850.349,276.946 849.349,269.446C848.994,266.782 848.892,264.075 848.652,261.427C848.579,260.629 848.199,256.862 848.477,257.418C848.755,257.974 842.934,156.025 842.934,156.025Z" style="fill:rgb(237,201,19);stroke:black;stroke-width:15.02px;"/>
    </g>
    <g transform="matrix(0.83973,0,0,0.824758,-55.6773,39.902)">
        <path d="M799.781,257.671C799.209,258.156 798.2,258.039 797.751,258.638C794.928,262.402 795.833,269.335 795.833,273.804C795.833,285.127 797.811,295.648 792.695,305.879C792.304,306.661 791.436,306.092 790.952,306.576C789.199,308.329 787.725,308.198 785.374,308.668C781.772,309.388 778.056,308.755 774.566,309.191C773.088,309.375 770.783,309.92 769.337,309.714C767.759,309.488 765.839,308.842 764.281,308.842C762.173,308.842 759.96,308.145 758.006,308.145C757.9,308.145 755.391,307.921 755.391,307.796C755.391,307.345 757.618,307.725 757.832,307.796C759.558,308.372 763.307,308.932 765.153,308.668C770.641,307.884 776.398,307.012 781.888,306.402C784.624,306.098 787.591,306.588 789.906,304.658C792.689,302.34 792.907,298.995 793.393,295.594C794.27,289.45 794.804,282.802 794.439,276.593C794.256,273.49 793.65,270.441 793.393,267.354C793.344,266.769 792.59,265.891 793.044,265.437C793.498,264.983 799.781,257.671 799.781,257.671Z" style="fill:rgb(237,201,19);stroke:black;stroke-width:15.02px;"/>
    </g>
    <g transform="matrix(0.83973,0,0,0.824758,-39.065,43.3012)">
        <path d="M497.546,181.393C497.515,179.506 498.103,185.33 498.243,186.311C498.26,186.43 498.401,188.269 498.418,188.234C499.356,186.358 498.108,184.523 499.991,182.64C501.488,181.143 508.217,178.477 509.082,181.94C509.796,184.793 508.436,186.465 505.761,187.535C505.317,187.713 501.786,187.756 502.264,188.234C502.742,188.712 497.546,181.393 497.546,181.393Z" style="fill:rgb(237,201,19);stroke:black;stroke-width:15.02px;"/>
    </g>
    <g transform="matrix(0.83973,0,0,0.824758,-39.065,43.3012)">
        <path d="M504.985,256.747C504.664,256.25 504.938,257.939 505.061,258.517C505.339,259.814 505.587,261.087 505.935,262.363C506.044,262.761 506.11,263.587 506.11,263.587C506.11,263.587 505.761,261.73 505.761,260.79C505.761,259.566 507.032,257.833 508.033,257.118C510.286,255.509 513.718,255.606 515.376,257.818C517.509,260.661 515.204,262.712 512.754,263.762C512.335,263.942 508.384,264.811 509.082,264.811C509.781,264.811 504.985,256.747 504.985,256.747Z" style="fill:rgb(237,201,19);stroke:black;stroke-width:15.02px;"/>
    </g>
    <g id="Layer1">
        <path d="M47.202,361.592C44.208,361.35 53.591,359.833 55.637,358.809C61.357,355.949 71.442,355.213 77.923,353.917C83.296,352.843 88.302,349.015 93.687,347.938C109.219,344.832 127.005,344.84 143.151,343.046C209.332,335.692 275.817,340.17 342.095,335.436C404.606,330.971 466.352,342.127 527.993,336.523C541.093,335.332 554.604,337.975 567.673,336.523C588.596,334.198 609.749,336.256 630.726,334.349C656.573,331.999 685.9,325.691 712.261,329.457C724.999,331.276 743.712,331.556 751.941,339.784C753.131,340.975 771.677,336.992 777.488,338.154C787.681,340.192 800.068,347.938 809.015,347.938C846.248,347.938 886.977,324.753 927.511,330.544C936.823,331.874 958.154,328.029 964.473,334.349C965.138,335.013 963.93,339.654 963.93,340.872C963.93,349.891 941.912,344.268 934.578,343.046C903.059,337.793 869.3,342.404 838.911,348.481C832.938,349.676 812.419,355.092 808.435,359.076C805.484,362.027 818.043,370.33 819.342,372.942C828.11,390.568 806.799,411.94 791.621,401.207C776.614,390.595 779.194,389.191 783.801,372.371C785.108,367.603 796.691,358.898 791.077,356.091C782.042,351.574 763.713,348.483 754.116,348.483C754.05,348.483 755.754,352.622 755.746,352.83C755.421,360.988 749.796,375.594 737.223,368.443C729.203,363.882 728.616,358.014 732.372,350.656C732.611,350.188 736.497,347.01 734.003,345.764C711.007,334.266 678.227,339.742 653.556,344.676C642.972,346.793 629.568,344.133 618.768,344.133C576.251,344.133 532.878,344.405 490.487,347.938C469.38,349.697 444.814,349.499 423.629,346.851C412.039,345.402 398.325,347.209 386.667,347.938C366.1,349.223 345.302,347.394 324.701,347.394C272.997,347.394 222.797,346.655 171.96,353.917C155.983,356.199 139.489,353.984 123.583,356.635C100.887,360.418 77.29,363.588 55.094,369.137C53.944,369.424 45.314,370.771 44.223,369.68C41.746,367.204 44.766,360.376 44.766,360.44C44.766,360.503 47.202,361.592 47.202,361.592Z" style="fill:rgb(214,187,16);stroke:black;stroke-width:2.4px;"/>
    </g>
    <g id="Layer2">
        <path d="M744.541,348.608C741.784,349.136 736.465,356.177 738.983,359.852C741.73,363.861 747.996,360.793 746.814,354.559C746.64,353.641 744.346,349.901 744.346,351.53C744.346,351.762 744.541,348.608 744.541,348.608Z" style="fill:white;stroke:black;stroke-width:2.4px;"/>
        <path d="M801.209,366.716C797.29,369.582 792.782,376.708 790.916,382.305C789.713,385.916 790.478,390.687 794.493,391.356C797.544,391.865 802.278,391.087 804.59,388.776C807.809,385.556 808.785,378.701 807.394,374.528C806.446,371.682 803.191,369.772 802.346,367.236C802.227,366.878 801.352,366.573 801.209,366.716C801.118,366.807 801.209,366.716 801.209,366.716Z" style="fill:white;stroke:black;stroke-width:2.4px;"/>
    </g>
</svg>
